<svg width="55" height="12" viewBox="0 0 55 12" fill="none" xmlns="http://www.w3.org/2000/svg">
<path d="M1.709 7.24811V11.0001H0.358002V0.96911H3.319C3.95367 0.96911 4.50434 1.04378 4.971 1.19311C5.44234 1.33778 5.832 1.54544 6.14 1.81611C6.448 2.08678 6.67667 2.41344 6.826 2.79611C6.98 3.17878 7.057 3.60578 7.057 4.07711C7.057 4.54378 6.97534 4.97078 6.812 5.35811C6.64867 5.74544 6.40834 6.07911 6.091 6.35911C5.77834 6.63911 5.38867 6.85844 4.922 7.01711C4.45534 7.17111 3.921 7.24811 3.319 7.24811H1.709ZM1.709 6.17011H3.319C3.70634 6.17011 4.047 6.11878 4.341 6.01611C4.63967 5.91344 4.88934 5.77111 5.09 5.58911C5.29067 5.40244 5.44234 5.18078 5.545 4.92411C5.64767 4.66744 5.699 4.38511 5.699 4.07711C5.699 3.43778 5.50067 2.93844 5.104 2.57911C4.712 2.21978 4.117 2.04011 3.319 2.04011H1.709V6.17011Z" fill="white"/>
<path d="M8.5806 11.0001V3.90911H9.2946C9.42993 3.90911 9.52326 3.93478 9.5746 3.98611C9.62593 4.03744 9.66093 4.12611 9.67959 4.25211L9.7636 5.35811C10.0063 4.86344 10.3049 4.47844 10.6596 4.20311C11.0189 3.92311 11.4389 3.78311 11.9196 3.78311C12.1156 3.78311 12.2929 3.80644 12.4516 3.85311C12.6103 3.89511 12.7573 3.95578 12.8926 4.03511L12.7316 4.96611C12.6989 5.08278 12.6266 5.14111 12.5146 5.14111C12.4493 5.14111 12.3489 5.12011 12.2136 5.07811C12.0783 5.03144 11.8893 5.00811 11.6466 5.00811C11.2126 5.00811 10.8486 5.13411 10.5546 5.38611C10.2653 5.63811 10.0226 6.00444 9.8266 6.48511V11.0001H8.5806Z" fill="white"/>
<path d="M17.0341 3.79711C17.4587 3.79711 17.8507 3.86944 18.2101 4.01411C18.5694 4.15411 18.8797 4.35944 19.1411 4.63011C19.4024 4.89611 19.6054 5.22744 19.7501 5.62411C19.8994 6.01611 19.9741 6.46411 19.9741 6.96811C19.9741 7.16411 19.9531 7.29478 19.9111 7.36011C19.8691 7.42544 19.7897 7.45811 19.6731 7.45811H14.9551C14.9644 7.90611 15.0251 8.29578 15.1371 8.62711C15.2491 8.95844 15.4031 9.23611 15.5991 9.46011C15.7951 9.67944 16.0284 9.84511 16.2991 9.95711C16.5697 10.0644 16.8731 10.1181 17.2091 10.1181C17.5217 10.1181 17.7901 10.0831 18.0141 10.0131C18.2427 9.93844 18.4387 9.85911 18.6021 9.77511C18.7654 9.69111 18.9007 9.61411 19.0081 9.54411C19.1201 9.46944 19.2157 9.43211 19.2951 9.43211C19.3977 9.43211 19.4771 9.47178 19.5331 9.55111L19.8831 10.0061C19.7291 10.1928 19.5447 10.3561 19.3301 10.4961C19.1154 10.6314 18.8844 10.7434 18.6371 10.8321C18.3944 10.9208 18.1424 10.9861 17.8811 11.0281C17.6197 11.0748 17.3607 11.0981 17.1041 11.0981C16.6141 11.0981 16.1614 11.0164 15.7461 10.8531C15.3354 10.6851 14.9784 10.4424 14.6751 10.1251C14.3764 9.80311 14.1431 9.40644 13.9751 8.93511C13.8071 8.46378 13.7231 7.92244 13.7231 7.31111C13.7231 6.81644 13.7977 6.35444 13.9471 5.92511C14.1011 5.49578 14.3204 5.12478 14.6051 4.81211C14.8897 4.49478 15.2374 4.24744 15.6481 4.07011C16.0587 3.88811 16.5207 3.79711 17.0341 3.79711ZM17.0621 4.71411C16.4601 4.71411 15.9864 4.88911 15.6411 5.23911C15.2957 5.58444 15.0811 6.06511 14.9971 6.68111H18.8541C18.8541 6.39178 18.8144 6.12811 18.7351 5.89011C18.6557 5.64744 18.5391 5.43978 18.3851 5.26711C18.2311 5.08978 18.0421 4.95444 17.8181 4.86111C17.5987 4.76311 17.3467 4.71411 17.0621 4.71411Z" fill="white"/>
<path d="M21.5689 11.0001V3.90911H22.3109C22.4882 3.90911 22.6002 3.99544 22.6469 4.16811L22.7379 4.89611C22.9992 4.57411 23.2909 4.31044 23.6129 4.10511C23.9395 3.89978 24.3175 3.79711 24.7469 3.79711C25.2275 3.79711 25.6149 3.93011 25.9089 4.19611C26.2075 4.46211 26.4222 4.82144 26.5529 5.27411C26.6509 5.01744 26.7792 4.79578 26.9379 4.60911C27.1012 4.42244 27.2832 4.26844 27.4839 4.14711C27.6845 4.02578 27.8969 3.93711 28.1209 3.88111C28.3495 3.82511 28.5805 3.79711 28.8139 3.79711C29.1872 3.79711 29.5185 3.85778 29.8079 3.97911C30.1019 4.09578 30.3492 4.26844 30.5499 4.49711C30.7552 4.72578 30.9115 5.00811 31.0189 5.34411C31.1262 5.67544 31.1799 6.05578 31.1799 6.48511V11.0001H29.9339V6.48511C29.9339 5.92978 29.8125 5.50978 29.5699 5.22511C29.3272 4.93578 28.9749 4.79111 28.5129 4.79111C28.3075 4.79111 28.1115 4.82844 27.9249 4.90311C27.7429 4.97311 27.5819 5.07811 27.4419 5.21811C27.3019 5.35811 27.1899 5.53544 27.1059 5.75011C27.0265 5.96011 26.9869 6.20511 26.9869 6.48511V11.0001H25.7409V6.48511C25.7409 5.91578 25.6265 5.49111 25.3979 5.21111C25.1692 4.93111 24.8355 4.79111 24.3969 4.79111C24.0889 4.79111 23.8019 4.87511 23.5359 5.04311C23.2745 5.20644 23.0342 5.43044 22.8149 5.71511V11.0001H21.5689Z" fill="white"/>
<path d="M34.4529 3.90911V11.0001H33.2069V3.90911H34.4529ZM34.7329 1.68311C34.7329 1.80444 34.7073 1.91878 34.6559 2.02611C34.6093 2.12878 34.5439 2.22211 34.4599 2.30611C34.3806 2.38544 34.2873 2.44844 34.1799 2.49511C34.0726 2.54178 33.9583 2.56511 33.8369 2.56511C33.7156 2.56511 33.6013 2.54178 33.4939 2.49511C33.3913 2.44844 33.2979 2.38544 33.2139 2.30611C33.1346 2.22211 33.0716 2.12878 33.0249 2.02611C32.9783 1.91878 32.9549 1.80444 32.9549 1.68311C32.9549 1.56178 32.9783 1.44744 33.0249 1.34011C33.0716 1.22811 33.1346 1.13244 33.2139 1.05311C33.2979 0.96911 33.3913 0.903776 33.4939 0.857109C33.6013 0.810443 33.7156 0.787109 33.8369 0.787109C33.9583 0.787109 34.0726 0.810443 34.1799 0.857109C34.2873 0.903776 34.3806 0.96911 34.4599 1.05311C34.5439 1.13244 34.6093 1.22811 34.6559 1.34011C34.7073 1.44744 34.7329 1.56178 34.7329 1.68311Z" fill="white"/>
<path d="M37.727 3.90911V8.43111C37.727 8.96778 37.8506 9.38311 38.098 9.67711C38.3453 9.97111 38.7186 10.1181 39.218 10.1181C39.582 10.1181 39.925 10.0318 40.247 9.85911C40.569 9.68644 40.8653 9.44611 41.136 9.13811V3.90911H42.382V11.0001H41.64C41.4626 11.0001 41.3506 10.9138 41.304 10.7411L41.206 9.97811C40.898 10.3188 40.5526 10.5941 40.17 10.8041C39.7873 11.0094 39.3486 11.1121 38.854 11.1121C38.4666 11.1121 38.1236 11.0491 37.825 10.9231C37.531 10.7924 37.2836 10.6104 37.083 10.3771C36.8823 10.1438 36.7306 9.86144 36.628 9.53011C36.53 9.19878 36.481 8.83244 36.481 8.43111V3.90911H37.727Z" fill="white"/>
<path d="M44.4283 11.0001V3.90911H45.1702C45.3476 3.90911 45.4596 3.99544 45.5063 4.16811L45.5973 4.89611C45.8586 4.57411 46.1503 4.31044 46.4723 4.10511C46.7989 3.89978 47.1769 3.79711 47.6063 3.79711C48.0869 3.79711 48.4743 3.93011 48.7683 4.19611C49.0669 4.46211 49.2816 4.82144 49.4123 5.27411C49.5103 5.01744 49.6386 4.79578 49.7973 4.60911C49.9606 4.42244 50.1426 4.26844 50.3433 4.14711C50.5439 4.02578 50.7563 3.93711 50.9803 3.88111C51.2089 3.82511 51.4399 3.79711 51.6733 3.79711C52.0466 3.79711 52.3779 3.85778 52.6673 3.97911C52.9613 4.09578 53.2086 4.26844 53.4093 4.49711C53.6146 4.72578 53.7709 5.00811 53.8783 5.34411C53.9856 5.67544 54.0393 6.05578 54.0393 6.48511V11.0001H52.7933V6.48511C52.7933 5.92978 52.6719 5.50978 52.4293 5.22511C52.1866 4.93578 51.8343 4.79111 51.3723 4.79111C51.1669 4.79111 50.9709 4.82844 50.7843 4.90311C50.6023 4.97311 50.4412 5.07811 50.3013 5.21811C50.1613 5.35811 50.0493 5.53544 49.9653 5.75011C49.8859 5.96011 49.8463 6.20511 49.8463 6.48511V11.0001H48.6003V6.48511C48.6003 5.91578 48.4859 5.49111 48.2573 5.21111C48.0286 4.93111 47.6949 4.79111 47.2563 4.79111C46.9483 4.79111 46.6613 4.87511 46.3953 5.04311C46.1339 5.20644 45.8936 5.43044 45.6743 5.71511V11.0001H44.4283Z" fill="white"/>
</svg>
